<svg xmlns="http://www.w3.org/2000/svg" xmlns:xlink="http://www.w3.org/1999/xlink" width="336" zoomAndPan="magnify" viewBox="0 0 252 143.999998" height="192" preserveAspectRatio="xMidYMid meet" version="1.0"><defs><g/><clipPath id="f0cf1f7d1c"><path d="M 14.402344 14.398438 L 237.59375 14.398438 L 237.59375 129.59375 L 14.402344 129.59375 Z M 14.402344 14.398438 " clip-rule="nonzero"/></clipPath><clipPath id="fba73487e7"><path d="M 76.285156 0.71875 L 85 0.71875 L 85 74.503906 L 76.285156 74.503906 Z M 76.285156 0.71875 " clip-rule="nonzero"/></clipPath><clipPath id="b3b8976442"><path d="M 0.285156 0.71875 L 8.519531 0.71875 L 8.519531 74.398438 L 0.285156 74.398438 Z M 0.285156 0.71875 " clip-rule="nonzero"/></clipPath><clipPath id="2a59d0617f"><rect x="0" width="9" y="0" height="75"/></clipPath><clipPath id="ee851dccfa"><rect x="0" width="194" y="0" height="98"/></clipPath><clipPath id="7e09432b34"><path d="M 25.238281 59.230469 L 25.597656 59.230469 L 25.597656 59.488281 L 25.238281 59.488281 Z M 25.238281 59.230469 " clip-rule="nonzero"/></clipPath><clipPath id="331430ed02"><path d="M 25.574219 59.398438 C 24.898438 59.625 25.5 59.25 25.5 59.25 " clip-rule="nonzero"/></clipPath><clipPath id="e651b9e7d9"><path d="M 0.238281 0.230469 L 0.597656 0.230469 L 0.597656 0.488281 L 0.238281 0.488281 Z M 0.238281 0.230469 " clip-rule="nonzero"/></clipPath><clipPath id="8d0b4d1d75"><path d="M 0.574219 0.398438 C -0.101562 0.625 0.5 0.25 0.5 0.25 " clip-rule="nonzero"/></clipPath><clipPath id="08f91de20b"><rect x="0" width="1" y="0" height="1"/></clipPath><clipPath id="942ac8a954"><path d="M 127.601562 115.964844 L 173.65625 115.964844 L 173.65625 117.257812 L 127.601562 117.257812 Z M 127.601562 115.964844 " clip-rule="nonzero"/></clipPath><clipPath id="9faba43a12"><path d="M 127.671875 115.976562 C 230.078125 116.226562 129.71875 118.441406 127.671875 116.394531 C 127.546875 116.269531 127.671875 115.976562 127.671875 115.976562 " clip-rule="nonzero"/></clipPath><clipPath id="10ff161362"><path d="M 0.601562 0.964844 L 46.65625 0.964844 L 46.65625 2.257812 L 0.601562 2.257812 Z M 0.601562 0.964844 " clip-rule="nonzero"/></clipPath><clipPath id="85e5a16c4e"><path d="M 0.671875 0.976562 C 103.078125 1.226562 2.71875 3.441406 0.671875 1.394531 C 0.546875 1.269531 0.671875 0.976562 0.671875 0.976562 " clip-rule="nonzero"/></clipPath><clipPath id="c3f412fcfc"><rect x="0" width="47" y="0" height="3"/></clipPath><clipPath id="1624c32c5c"><path d="M 127.859375 120 L 182.285156 120 L 182.285156 121.496094 L 127.859375 121.496094 Z M 127.859375 120 " clip-rule="nonzero"/></clipPath><clipPath id="81ce085ab7"><path d="M 127.941406 120.007812 C 248.953125 120.300781 130.371094 122.875 127.941406 120.492188 C 127.796875 120.347656 127.941406 120.007812 127.941406 120.007812 " clip-rule="nonzero"/></clipPath><clipPath id="a4017a3074"><path d="M 0.859375 0 L 55.285156 0 L 55.285156 1.496094 L 0.859375 1.496094 Z M 0.859375 0 " clip-rule="nonzero"/></clipPath><clipPath id="12e97d2e8f"><path d="M 0.941406 0.0078125 C 121.953125 0.300781 3.371094 2.875 0.941406 0.492188 C 0.796875 0.347656 0.941406 0.0078125 0.941406 0.0078125 " clip-rule="nonzero"/></clipPath><clipPath id="2578b99a82"><rect x="0" width="56" y="0" height="2"/></clipPath><clipPath id="cf3bc6c60f"><path d="M 0.28125 1 L 10 1 L 10 10 L 0.28125 10 Z M 0.28125 1 " clip-rule="nonzero"/></clipPath><clipPath id="9a95473f0b"><path d="M 54 0.679688 L 65 0.679688 L 65 10 L 54 10 Z M 54 0.679688 " clip-rule="nonzero"/></clipPath><clipPath id="0342cad470"><rect x="0" width="118" y="0" height="14"/></clipPath></defs><g clip-path="url(#f0cf1f7d1c)"><path stroke-linecap="butt" transform="matrix(0.75, 0, 0, 0.75, 14.40221, 14.400002)" fill="none" stroke-linejoin="miter" d="M 0.000178897 -0.00208615 L 297.588719 -0.00208615 L 297.588719 153.591663 L 0.000178897 153.591663 Z M 0.000178897 -0.00208615 " stroke="#f5fbf9" stroke-width="6" stroke-opacity="1" stroke-miterlimit="4"/></g><g transform="matrix(1, 0, 0, 1, 29, 24)"><g clip-path="url(#ee851dccfa)"><g fill="#ffffff" fill-opacity="1"><g transform="translate(0.480596, 73.013331)"><g><path d="M 24.640625 0.78125 C 20.941406 0.78125 17.546875 -0.125 14.453125 -1.9375 C 11.367188 -3.757812 8.914062 -6.210938 7.09375 -9.296875 C 5.28125 -12.378906 4.375 -15.769531 4.375 -19.46875 C 4.375 -23.238281 5.28125 -26.648438 7.09375 -29.703125 C 8.914062 -32.753906 11.367188 -35.1875 14.453125 -37 C 17.546875 -38.820312 20.941406 -39.734375 24.640625 -39.734375 C 29.179688 -39.734375 33.203125 -38.414062 36.703125 -35.78125 C 40.210938 -33.15625 42.617188 -29.796875 43.921875 -25.703125 L 37.5 -25.703125 C 36.320312 -28.109375 34.597656 -30.039062 32.328125 -31.5 C 30.054688 -32.957031 27.492188 -33.6875 24.640625 -33.6875 C 22.046875 -33.6875 19.660156 -33.050781 17.484375 -31.78125 C 15.304688 -30.519531 13.582031 -28.816406 12.3125 -26.671875 C 11.050781 -24.535156 10.421875 -22.132812 10.421875 -19.46875 C 10.421875 -16.8125 11.050781 -14.410156 12.3125 -12.265625 C 13.582031 -10.128906 15.304688 -8.425781 17.484375 -7.15625 C 19.660156 -5.894531 22.046875 -5.265625 24.640625 -5.265625 C 27.492188 -5.265625 30.054688 -5.992188 32.328125 -7.453125 C 34.597656 -8.910156 36.320312 -10.84375 37.5 -13.25 L 43.921875 -13.25 C 42.617188 -9.15625 40.210938 -5.789062 36.703125 -3.15625 C 33.203125 -0.53125 29.179688 0.78125 24.640625 0.78125 Z M 24.640625 0.78125 "/></g></g></g><g fill="#ffffff" fill-opacity="1"><g transform="translate(46.931872, 73.013331)"><g><path d="M 10.90625 -46.25 C 9.738281 -46.25 8.734375 -46.65625 7.890625 -47.46875 C 7.046875 -48.28125 6.625 -49.238281 6.625 -50.34375 C 6.625 -51.582031 7.046875 -52.585938 7.890625 -53.359375 C 8.734375 -54.140625 9.738281 -54.53125 10.90625 -54.53125 C 12.007812 -54.53125 12.984375 -54.140625 13.828125 -53.359375 C 14.671875 -52.585938 15.09375 -51.582031 15.09375 -50.34375 C 15.09375 -49.238281 14.671875 -48.28125 13.828125 -47.46875 C 12.984375 -46.65625 12.007812 -46.25 10.90625 -46.25 Z M 7.890625 0 L 7.890625 -38.953125 L 13.921875 -38.953125 L 13.921875 0 Z M 7.890625 0 "/></g></g></g><g fill="#ffffff" fill-opacity="1"><g transform="translate(68.648094, 73.013331)"><g/></g></g><g fill="#ffffff" fill-opacity="1"><g transform="translate(92.117188, 73.013331)"><g><path d="M 44.890625 -19.859375 L 44.796875 -18.59375 L 10.421875 -18.59375 C 10.546875 -16.132812 11.257812 -13.878906 12.5625 -11.828125 C 13.863281 -9.785156 15.566406 -8.179688 17.671875 -7.015625 C 19.785156 -5.847656 22.109375 -5.265625 24.640625 -5.265625 C 27.554688 -5.265625 30.195312 -6.039062 32.5625 -7.59375 C 34.9375 -9.15625 36.644531 -11.203125 37.6875 -13.734375 L 44.109375 -13.734375 C 43.265625 -10.941406 41.898438 -8.457031 40.015625 -6.28125 C 38.140625 -4.101562 35.882812 -2.378906 33.25 -1.109375 C 30.625 0.148438 27.753906 0.78125 24.640625 0.78125 C 20.941406 0.78125 17.546875 -0.125 14.453125 -1.9375 C 11.367188 -3.757812 8.914062 -6.210938 7.09375 -9.296875 C 5.28125 -12.378906 4.375 -15.769531 4.375 -19.46875 C 4.375 -23.238281 5.28125 -26.648438 7.09375 -29.703125 C 8.914062 -32.753906 11.367188 -35.1875 14.453125 -37 C 17.546875 -38.820312 20.941406 -39.734375 24.640625 -39.734375 C 28.335938 -39.734375 31.695312 -38.851562 34.71875 -37.09375 C 37.738281 -35.34375 40.171875 -32.972656 42.015625 -29.984375 C 43.867188 -27.003906 44.828125 -23.628906 44.890625 -19.859375 Z M 24.640625 -33.6875 C 21.523438 -33.6875 18.75 -32.796875 16.3125 -31.015625 C 13.875 -29.234375 12.171875 -26.910156 11.203125 -24.046875 L 37.984375 -24.046875 C 37.066406 -26.910156 35.390625 -29.234375 32.953125 -31.015625 C 30.523438 -32.796875 27.753906 -33.6875 24.640625 -33.6875 Z M 24.640625 -33.6875 "/></g></g></g><g fill="#ffffff" fill-opacity="1"><g transform="translate(141.003019, 73.013331)"><g><path d="M 48.890625 -5.0625 L 51.328125 -5.0625 L 51.328125 0 C 50.484375 0.519531 49.507812 0.78125 48.40625 0.78125 C 46.125 0.78125 44.21875 0.164062 42.6875 -1.0625 C 41.164062 -2.300781 40.082031 -3.925781 39.4375 -5.9375 C 37.625 -3.925781 35.429688 -2.300781 32.859375 -1.0625 C 30.296875 0.164062 27.554688 0.78125 24.640625 0.78125 C 20.941406 0.78125 17.546875 -0.125 14.453125 -1.9375 C 11.367188 -3.757812 8.914062 -6.210938 7.09375 -9.296875 C 5.28125 -12.378906 4.375 -15.769531 4.375 -19.46875 C 4.375 -23.238281 5.28125 -26.648438 7.09375 -29.703125 C 8.914062 -32.753906 11.367188 -35.1875 14.453125 -37 C 17.546875 -38.820312 20.941406 -39.734375 24.640625 -39.734375 C 27.429688 -39.734375 30.039062 -39.210938 32.46875 -38.171875 C 34.90625 -37.128906 37.035156 -35.703125 38.859375 -33.890625 L 38.859375 -38.953125 L 44.890625 -38.953125 L 44.890625 -10.125 C 44.890625 -8.3125 45.296875 -7.015625 46.109375 -6.234375 C 46.921875 -5.453125 47.847656 -5.0625 48.890625 -5.0625 Z M 24.640625 -5.265625 C 27.234375 -5.265625 29.597656 -5.894531 31.734375 -7.15625 C 33.878906 -8.425781 35.601562 -10.144531 36.90625 -12.3125 C 38.207031 -14.488281 38.859375 -16.875 38.859375 -19.46875 C 38.859375 -22.132812 38.207031 -24.535156 36.90625 -26.671875 C 35.601562 -28.816406 33.878906 -30.519531 31.734375 -31.78125 C 29.597656 -33.050781 27.234375 -33.6875 24.640625 -33.6875 C 22.046875 -33.6875 19.660156 -33.050781 17.484375 -31.78125 C 15.304688 -30.519531 13.582031 -28.816406 12.3125 -26.671875 C 11.050781 -24.535156 10.421875 -22.132812 10.421875 -19.46875 C 10.421875 -16.875 11.050781 -14.488281 12.3125 -12.3125 C 13.582031 -10.144531 15.304688 -8.425781 17.484375 -7.15625 C 19.660156 -5.894531 22.046875 -5.265625 24.640625 -5.265625 Z M 24.640625 -5.265625 "/></g></g></g><g clip-path="url(#fba73487e7)"><g transform="matrix(1, 0, 0, 1, 76, -0.000000000000017764)"><g clip-path="url(#2a59d0617f)"><g clip-path="url(#b3b8976442)"><path fill="#ffffff" d="M 0.289062 71.398438 C 0.289062 71.429688 0.292969 71.460938 0.292969 71.496094 C 0.394531 73.082031 1.710938 74.339844 3.324219 74.339844 C 4.933594 74.339844 6.25 73.085938 6.351562 71.503906 C 6.355469 71.464844 6.355469 71.425781 6.355469 71.390625 C 6.359375 71.351562 6.359375 71.3125 6.359375 71.273438 C 6.363281 71.074219 6.355469 70.882812 6.335938 70.699219 C 5.695312 63.582031 4.632812 41.101562 5.585938 36.75 C 5.632812 36.542969 5.675781 36.453125 5.738281 36.238281 C 9.84375 27.054688 8.65625 9.101562 5.425781 3.289062 C 3.46875 -0.234375 1.195312 0.179688 1.378906 2.992188 C 1.550781 5.609375 0.597656 21.878906 1.695312 36.691406 C 1.511719 51.261719 0.65625 66.878906 0.3125 70.699219 C 0.292969 70.882812 0.285156 71.074219 0.289062 71.273438 C 0.289062 71.3125 0.289062 71.355469 0.289062 71.398438 Z M 0.289062 71.398438 " fill-opacity="1" fill-rule="nonzero"/></g></g></g></g></g></g><g clip-path="url(#7e09432b34)"><g clip-path="url(#331430ed02)"><g transform="matrix(1, 0, 0, 1, 25, 59)"><g clip-path="url(#08f91de20b)"><g clip-path="url(#e651b9e7d9)"><g clip-path="url(#8d0b4d1d75)"><rect x="-80.44" width="362.88" fill="#0571d3" height="207.359996" y="-90.679999" fill-opacity="1"/></g></g></g></g></g></g><g clip-path="url(#942ac8a954)"><g clip-path="url(#9faba43a12)"><g transform="matrix(1, 0, 0, 1, 127, 115)"><g clip-path="url(#c3f412fcfc)"><g clip-path="url(#10ff161362)"><g clip-path="url(#85e5a16c4e)"><rect x="-182.44" width="362.88" fill="#ffcc00" height="207.359996" y="-146.679999" fill-opacity="1"/></g></g></g></g></g></g><g clip-path="url(#1624c32c5c)"><g clip-path="url(#81ce085ab7)"><g transform="matrix(1, 0, 0, 1, 127, 120)"><g clip-path="url(#2578b99a82)"><g clip-path="url(#a4017a3074)"><g clip-path="url(#12e97d2e8f)"><rect x="-182.44" width="362.88" fill="#ce1126" height="207.359996" y="-151.679999" fill-opacity="1"/></g></g></g></g></g></g><g transform="matrix(1, 0, 0, 1, 101, 103)"><g clip-path="url(#0342cad470)"><g clip-path="url(#cf3bc6c60f)"><g fill="#f5fbf9" fill-opacity="1"><g transform="translate(0.50266, 9.074718)"><g><path d="M 5.40625 -0.234375 C 4.664062 0.328125 3.914062 0.609375 3.15625 0.609375 C 2.34375 0.609375 1.753906 0.3125 1.390625 -0.28125 C 1.128906 -0.71875 1 -1.203125 1 -1.734375 C 1 -2.265625 1.09375 -2.796875 1.28125 -3.328125 C 0.8125 -3.640625 0.554688 -4.0625 0.515625 -4.59375 C 0.503906 -4.695312 0.5 -4.800781 0.5 -4.90625 C 0.5 -5.707031 0.84375 -6.378906 1.53125 -6.921875 C 2.269531 -7.492188 3.140625 -7.78125 4.140625 -7.78125 C 5.148438 -7.78125 5.984375 -7.5 6.640625 -6.9375 C 7.304688 -6.382812 7.640625 -5.585938 7.640625 -4.546875 C 7.640625 -4.484375 7.640625 -4.414062 7.640625 -4.34375 C 8.304688 -4.789062 8.742188 -5.210938 8.953125 -5.609375 C 8.984375 -5.679688 9.023438 -5.710938 9.078125 -5.703125 C 9.128906 -5.703125 9.15625 -5.679688 9.15625 -5.640625 C 9.15625 -5.609375 9.132812 -5.5625 9.09375 -5.5 C 8.695312 -4.875 8.195312 -4.375 7.59375 -4 C 7.570312 -3.675781 7.488281 -3.289062 7.34375 -2.84375 C 7.195312 -2.40625 6.953125 -1.953125 6.609375 -1.484375 C 6.265625 -1.015625 5.863281 -0.597656 5.40625 -0.234375 Z M 7.046875 -4.5625 C 7.046875 -5.695312 6.679688 -6.535156 5.953125 -7.078125 C 5.472656 -7.441406 4.910156 -7.625 4.265625 -7.625 C 4.078125 -7.625 3.882812 -7.601562 3.6875 -7.5625 C 2.875 -7.445312 2.207031 -7.109375 1.6875 -6.546875 C 1.25 -6.066406 1.03125 -5.519531 1.03125 -4.90625 C 1.03125 -4.375 1.175781 -3.988281 1.46875 -3.75 C 1.726562 -4.300781 2.113281 -4.863281 2.625 -5.4375 C 3.1875 -6.0625 3.773438 -6.441406 4.390625 -6.578125 C 4.484375 -6.597656 4.609375 -6.609375 4.765625 -6.609375 C 4.929688 -6.609375 5.117188 -6.546875 5.328125 -6.421875 C 5.367188 -6.390625 5.390625 -6.359375 5.390625 -6.328125 C 5.398438 -6.304688 5.382812 -6.289062 5.34375 -6.28125 C 5.3125 -6.269531 5.265625 -6.273438 5.203125 -6.296875 C 5.140625 -6.316406 5.023438 -6.328125 4.859375 -6.328125 C 4.703125 -6.328125 4.476562 -6.242188 4.1875 -6.078125 C 3.894531 -5.921875 3.597656 -5.671875 3.296875 -5.328125 C 2.691406 -4.648438 2.253906 -4.007812 1.984375 -3.40625 C 2.398438 -3.207031 2.90625 -3.109375 3.5 -3.109375 C 3.757812 -3.109375 4.039062 -3.125 4.34375 -3.15625 C 5.300781 -3.28125 6.195312 -3.570312 7.03125 -4.03125 C 7.039062 -4.207031 7.046875 -4.382812 7.046875 -4.5625 Z M 6.96875 -3.671875 C 5.84375 -3.078125 4.660156 -2.78125 3.421875 -2.78125 C 2.816406 -2.78125 2.285156 -2.867188 1.828125 -3.046875 C 1.617188 -2.503906 1.515625 -2.035156 1.515625 -1.640625 C 1.515625 -0.710938 1.796875 -0.113281 2.359375 0.15625 C 2.660156 0.300781 2.957031 0.375 3.25 0.375 C 3.550781 0.375 3.84375 0.3125 4.125 0.1875 C 4.71875 -0.0820312 5.25 -0.503906 5.71875 -1.078125 C 6.1875 -1.648438 6.539062 -2.273438 6.78125 -2.953125 C 6.875 -3.222656 6.9375 -3.460938 6.96875 -3.671875 Z M 6.96875 -3.671875 "/></g></g></g></g><g fill="#f5fbf9" fill-opacity="1"><g transform="translate(11.477984, 9.074718)"><g><path d="M 1.4375 -0.1875 C 1.53125 -0.175781 1.59375 -0.171875 1.625 -0.171875 C 1.894531 -0.171875 2.160156 -0.328125 2.421875 -0.640625 C 2.554688 -0.816406 2.804688 -1.257812 3.171875 -1.96875 C 3.191406 -2 3.21875 -2.015625 3.25 -2.015625 C 3.3125 -2.015625 3.34375 -1.988281 3.34375 -1.9375 C 3.34375 -1.925781 3.328125 -1.890625 3.296875 -1.828125 C 3.265625 -1.765625 3.234375 -1.703125 3.203125 -1.640625 C 3.179688 -1.578125 3.140625 -1.484375 3.078125 -1.359375 C 3.015625 -1.234375 2.960938 -1.132812 2.921875 -1.0625 C 2.878906 -0.988281 2.820312 -0.898438 2.75 -0.796875 C 2.6875 -0.691406 2.617188 -0.609375 2.546875 -0.546875 L 2.34375 -0.328125 C 2.226562 -0.210938 2.09375 -0.128906 1.9375 -0.078125 C 1.6875 0.00390625 1.445312 0.0078125 1.21875 -0.0625 C 1.0625 0.0078125 0.921875 0.046875 0.796875 0.046875 C 0.328125 0.046875 0.0390625 -0.140625 -0.0625 -0.515625 C -0.0820312 -0.609375 -0.09375 -0.71875 -0.09375 -0.84375 C -0.09375 -0.96875 -0.0507812 -1.085938 0.03125 -1.203125 C 0.113281 -1.316406 0.203125 -1.375 0.296875 -1.375 C 0.640625 -2.03125 0.929688 -2.617188 1.171875 -3.140625 C 1.441406 -3.710938 1.753906 -4 2.109375 -4 C 2.203125 -4 2.289062 -3.972656 2.375 -3.921875 C 2.46875 -3.878906 2.503906 -3.832031 2.484375 -3.78125 C 2.460938 -3.726562 2.414062 -3.71875 2.34375 -3.75 C 2.269531 -3.78125 2.203125 -3.796875 2.140625 -3.796875 C 2.085938 -3.796875 2.046875 -3.785156 2.015625 -3.765625 C 1.785156 -3.660156 1.671875 -3.429688 1.671875 -3.078125 C 1.671875 -2.890625 1.695312 -2.734375 1.75 -2.609375 C 1.800781 -2.492188 1.859375 -2.363281 1.921875 -2.21875 C 2.078125 -1.875 2.15625 -1.59375 2.15625 -1.375 C 2.15625 -1.144531 2.082031 -0.921875 1.9375 -0.703125 C 1.800781 -0.492188 1.632812 -0.320312 1.4375 -0.1875 Z M 1.109375 -0.265625 C 1.398438 -0.492188 1.546875 -0.863281 1.546875 -1.375 C 1.546875 -1.582031 1.519531 -1.863281 1.46875 -2.21875 C 1.425781 -2.582031 1.40625 -2.828125 1.40625 -2.953125 C 1.40625 -3.085938 1.410156 -3.175781 1.421875 -3.21875 C 0.910156 -2.195312 0.59375 -1.578125 0.46875 -1.359375 C 0.613281 -1.359375 0.6875 -1.257812 0.6875 -1.0625 C 0.6875 -0.664062 0.828125 -0.398438 1.109375 -0.265625 Z M 0.34375 -0.53125 C 0.34375 -0.488281 0.347656 -0.445312 0.359375 -0.40625 C 0.410156 -0.21875 0.535156 -0.125 0.734375 -0.125 C 0.804688 -0.125 0.875 -0.140625 0.9375 -0.171875 C 0.6875 -0.328125 0.550781 -0.578125 0.53125 -0.921875 C 0.40625 -0.804688 0.34375 -0.675781 0.34375 -0.53125 Z M 0.34375 -0.53125 "/></g></g></g><g fill="#f5fbf9" fill-opacity="1"><g transform="translate(17.72515, 9.074718)"><g><path d="M 0.328125 -0.8125 C 0.328125 -1.363281 0.59375 -2.296875 1.125 -3.609375 L 0.609375 -3.609375 C 0.566406 -3.609375 0.539062 -3.625 0.53125 -3.65625 C 0.519531 -3.695312 0.523438 -3.734375 0.546875 -3.765625 C 0.566406 -3.804688 0.59375 -3.828125 0.625 -3.828125 L 1.234375 -3.828125 C 1.472656 -4.359375 1.695312 -4.800781 1.90625 -5.15625 C 2.113281 -5.507812 2.300781 -5.75 2.46875 -5.875 C 2.644531 -6 2.769531 -6.0625 2.84375 -6.0625 C 2.925781 -6.0625 2.984375 -6.050781 3.015625 -6.03125 C 3.171875 -5.957031 3.25 -5.804688 3.25 -5.578125 C 3.25 -5.347656 3.171875 -5.066406 3.015625 -4.734375 C 2.859375 -4.410156 2.707031 -4.109375 2.5625 -3.828125 L 3.046875 -3.828125 C 3.078125 -3.828125 3.097656 -3.804688 3.109375 -3.765625 C 3.117188 -3.734375 3.113281 -3.695312 3.09375 -3.65625 C 3.082031 -3.625 3.0625 -3.609375 3.03125 -3.609375 L 2.4375 -3.609375 C 2.070312 -2.984375 1.628906 -2.425781 1.109375 -1.9375 L 0.875 -0.921875 C 0.851562 -0.828125 0.84375 -0.738281 0.84375 -0.65625 C 0.84375 -0.570312 0.863281 -0.484375 0.90625 -0.390625 C 0.957031 -0.304688 1.035156 -0.265625 1.140625 -0.265625 C 1.253906 -0.265625 1.378906 -0.304688 1.515625 -0.390625 C 1.835938 -0.628906 2.195312 -1.132812 2.59375 -1.90625 C 2.613281 -1.96875 2.640625 -2.003906 2.671875 -2.015625 C 2.710938 -2.035156 2.734375 -2.03125 2.734375 -2 C 2.742188 -1.96875 2.738281 -1.914062 2.71875 -1.84375 C 2.5 -1.382812 2.320312 -1.054688 2.1875 -0.859375 C 1.832031 -0.273438 1.445312 0.015625 1.03125 0.015625 C 0.820312 0.015625 0.648438 -0.0625 0.515625 -0.21875 C 0.390625 -0.375 0.328125 -0.570312 0.328125 -0.8125 Z M 2.34375 -3.828125 C 2.789062 -4.617188 3.015625 -5.164062 3.015625 -5.46875 C 3.015625 -5.601562 2.988281 -5.671875 2.9375 -5.671875 C 2.863281 -5.671875 2.75 -5.5625 2.59375 -5.34375 C 2.445312 -5.132812 2.195312 -4.628906 1.84375 -3.828125 Z M 2.21875 -3.609375 L 1.734375 -3.609375 C 1.660156 -3.421875 1.484375 -2.972656 1.203125 -2.265625 C 1.554688 -2.640625 1.894531 -3.085938 2.21875 -3.609375 Z M 2.21875 -3.609375 "/></g></g></g><g fill="#f5fbf9" fill-opacity="1"><g transform="translate(23.408967, 9.074718)"><g><path d="M 1.015625 -1.546875 C 0.921875 -1.316406 0.875 -1.0625 0.875 -0.78125 C 0.875 -0.59375 0.914062 -0.441406 1 -0.328125 C 1.082031 -0.222656 1.203125 -0.171875 1.359375 -0.171875 C 1.972656 -0.171875 2.523438 -0.742188 3.015625 -1.890625 C 3.066406 -1.992188 3.125 -2.039062 3.1875 -2.03125 C 3.21875 -2.019531 3.234375 -2 3.234375 -1.96875 C 3.234375 -1.945312 3.15625 -1.773438 3 -1.453125 C 2.851562 -1.128906 2.703125 -0.867188 2.546875 -0.671875 C 2.203125 -0.191406 1.78125 0.046875 1.28125 0.046875 C 1.007812 0.046875 0.78125 -0.0390625 0.59375 -0.21875 C 0.40625 -0.394531 0.3125 -0.632812 0.3125 -0.9375 C 0.3125 -1.238281 0.382812 -1.554688 0.53125 -1.890625 C 0.675781 -2.234375 0.867188 -2.550781 1.109375 -2.84375 C 1.359375 -3.132812 1.644531 -3.347656 1.96875 -3.484375 C 2.125 -3.546875 2.269531 -3.578125 2.40625 -3.578125 C 2.550781 -3.578125 2.6875 -3.539062 2.8125 -3.46875 C 2.925781 -3.375 2.984375 -3.269531 2.984375 -3.15625 C 2.984375 -2.75 2.738281 -2.363281 2.25 -2 C 2.101562 -1.882812 1.894531 -1.78125 1.625 -1.6875 C 1.363281 -1.59375 1.160156 -1.546875 1.015625 -1.546875 Z M 2.703125 -3.15625 C 2.703125 -3.289062 2.648438 -3.359375 2.546875 -3.359375 C 2.359375 -3.359375 2.070312 -3.128906 1.6875 -2.671875 C 1.457031 -2.390625 1.257812 -2.070312 1.09375 -1.71875 C 1.195312 -1.71875 1.359375 -1.757812 1.578125 -1.84375 C 1.796875 -1.925781 1.988281 -2.03125 2.15625 -2.15625 C 2.519531 -2.476562 2.703125 -2.8125 2.703125 -3.15625 Z M 2.703125 -3.15625 "/></g></g></g><g fill="#f5fbf9" fill-opacity="1"><g transform="translate(29.555538, 9.074718)"><g><path d="M 1.9375 -4.03125 C 1.9375 -3.726562 1.742188 -3.445312 1.359375 -3.1875 C 1.492188 -3.175781 1.671875 -3.171875 1.890625 -3.171875 C 2.117188 -3.171875 2.40625 -3.1875 2.75 -3.21875 C 2.757812 -3.195312 2.765625 -3.140625 2.765625 -3.046875 C 2.765625 -2.960938 2.722656 -2.835938 2.640625 -2.671875 C 2.566406 -2.503906 2.5 -2.359375 2.4375 -2.234375 C 2.375 -2.109375 2.3125 -1.988281 2.25 -1.875 C 2.195312 -1.757812 2.132812 -1.625 2.0625 -1.46875 C 1.988281 -1.3125 1.929688 -1.164062 1.890625 -1.03125 C 1.722656 -0.519531 1.75 -0.265625 1.96875 -0.265625 C 2.25 -0.265625 2.664062 -0.820312 3.21875 -1.9375 C 3.257812 -2.03125 3.296875 -2.066406 3.328125 -2.046875 C 3.359375 -2.023438 3.375 -2 3.375 -1.96875 C 3.375 -1.9375 3.328125 -1.832031 3.234375 -1.65625 C 3.148438 -1.476562 3.054688 -1.296875 2.953125 -1.109375 C 2.859375 -0.921875 2.703125 -0.703125 2.484375 -0.453125 C 2.234375 -0.140625 1.988281 0.015625 1.75 0.015625 C 1.488281 0.015625 1.3125 -0.144531 1.21875 -0.46875 C 1.195312 -0.519531 1.1875 -0.609375 1.1875 -0.734375 C 1.1875 -0.859375 1.222656 -1.019531 1.296875 -1.21875 C 1.378906 -1.414062 1.503906 -1.660156 1.671875 -1.953125 C 1.835938 -2.242188 1.929688 -2.410156 1.953125 -2.453125 C 1.972656 -2.503906 1.984375 -2.554688 1.984375 -2.609375 C 1.984375 -2.816406 1.710938 -2.925781 1.171875 -2.9375 L 1.046875 -2.609375 C 0.628906 -1.503906 0.222656 -0.765625 -0.171875 -0.390625 C -0.234375 -0.328125 -0.265625 -0.347656 -0.265625 -0.453125 C -0.265625 -0.472656 -0.257812 -0.492188 -0.25 -0.515625 C 0.125 -1.015625 0.445312 -1.601562 0.71875 -2.28125 C 1 -2.957031 1.191406 -3.601562 1.296875 -4.21875 C 1.335938 -4.425781 1.429688 -4.53125 1.578125 -4.53125 C 1.734375 -4.53125 1.84375 -4.4375 1.90625 -4.25 C 1.925781 -4.1875 1.9375 -4.113281 1.9375 -4.03125 Z M 1.9375 -4.03125 "/></g></g></g><g fill="#f5fbf9" fill-opacity="1"><g transform="translate(35.842946, 9.074718)"><g><path d="M 1.953125 -3.90625 C 1.859375 -3.832031 1.753906 -3.796875 1.640625 -3.796875 C 1.523438 -3.796875 1.429688 -3.832031 1.359375 -3.90625 C 1.296875 -3.988281 1.269531 -4.085938 1.28125 -4.203125 C 1.300781 -4.316406 1.359375 -4.414062 1.453125 -4.5 C 1.546875 -4.582031 1.648438 -4.625 1.765625 -4.625 C 1.878906 -4.625 1.972656 -4.582031 2.046875 -4.5 C 2.117188 -4.414062 2.144531 -4.316406 2.125 -4.203125 C 2.101562 -4.085938 2.046875 -3.988281 1.953125 -3.90625 Z M 0.96875 -0.21875 C 1.09375 -0.21875 1.226562 -0.28125 1.375 -0.40625 C 1.613281 -0.65625 1.925781 -1.164062 2.3125 -1.9375 C 2.363281 -2.03125 2.410156 -2.054688 2.453125 -2.015625 C 2.460938 -2.003906 2.46875 -1.984375 2.46875 -1.953125 C 2.46875 -1.921875 2.441406 -1.847656 2.390625 -1.734375 C 2.335938 -1.617188 2.289062 -1.515625 2.25 -1.421875 C 2.207031 -1.328125 2.125 -1.171875 2 -0.953125 C 1.875 -0.742188 1.757812 -0.582031 1.65625 -0.46875 C 1.382812 -0.15625 1.125 0 0.875 0 C 0.632812 0 0.457031 -0.0703125 0.34375 -0.21875 C 0.238281 -0.363281 0.1875 -0.523438 0.1875 -0.703125 C 0.1875 -0.890625 0.234375 -1.09375 0.328125 -1.3125 L 0.96875 -2.953125 C 0.976562 -2.992188 0.984375 -3.046875 0.984375 -3.109375 C 0.984375 -3.171875 0.941406 -3.257812 0.859375 -3.375 L 1.421875 -3.375 C 1.578125 -3.375 1.664062 -3.34375 1.6875 -3.28125 C 1.71875 -3.226562 1.695312 -3.144531 1.625 -3.03125 L 0.828125 -1.140625 C 0.710938 -0.898438 0.65625 -0.691406 0.65625 -0.515625 C 0.65625 -0.316406 0.757812 -0.21875 0.96875 -0.21875 Z M 0.96875 -0.21875 "/></g></g></g><g fill="#f5fbf9" fill-opacity="1"><g transform="translate(41.265197, 9.074718)"><g><path d="M 3.625 -2.734375 C 3.507812 -2.609375 3.335938 -2.332031 3.109375 -1.90625 C 2.890625 -1.476562 2.757812 -1.160156 2.71875 -0.953125 C 2.675781 -0.742188 2.65625 -0.570312 2.65625 -0.4375 C 2.65625 -0.300781 2.707031 -0.234375 2.8125 -0.234375 C 2.9375 -0.234375 3.09375 -0.351562 3.28125 -0.59375 C 3.550781 -0.9375 3.820312 -1.382812 4.09375 -1.9375 C 4.125 -1.988281 4.15625 -2.019531 4.1875 -2.03125 C 4.238281 -2.050781 4.265625 -2.03125 4.265625 -1.96875 C 4.265625 -1.9375 4.253906 -1.894531 4.234375 -1.84375 C 3.617188 -0.601562 3.097656 0.015625 2.671875 0.015625 C 2.484375 0.015625 2.328125 -0.078125 2.203125 -0.265625 C 2.140625 -0.359375 2.109375 -0.488281 2.109375 -0.65625 C 2.109375 -0.832031 2.144531 -1.039062 2.21875 -1.28125 C 1.675781 -0.414062 1.210938 0.015625 0.828125 0.015625 C 0.722656 0.015625 0.625 -0.015625 0.53125 -0.078125 C 0.332031 -0.222656 0.234375 -0.46875 0.234375 -0.8125 C 0.234375 -1.46875 0.519531 -2.132812 1.09375 -2.8125 C 1.40625 -3.1875 1.800781 -3.429688 2.28125 -3.546875 C 2.40625 -3.578125 2.523438 -3.59375 2.640625 -3.59375 C 2.941406 -3.59375 3.203125 -3.484375 3.421875 -3.265625 C 3.484375 -3.191406 3.5 -3.117188 3.46875 -3.046875 C 3.445312 -2.984375 3.394531 -2.960938 3.3125 -2.984375 C 3.238281 -3.222656 3.078125 -3.34375 2.828125 -3.34375 C 2.535156 -3.34375 2.179688 -3.113281 1.765625 -2.65625 C 1.523438 -2.382812 1.300781 -2.066406 1.09375 -1.703125 C 0.820312 -1.273438 0.6875 -0.925781 0.6875 -0.65625 C 0.6875 -0.394531 0.773438 -0.265625 0.953125 -0.265625 C 1.347656 -0.265625 1.875 -0.882812 2.53125 -2.125 C 2.65625 -2.375 2.757812 -2.539062 2.84375 -2.625 C 2.9375 -2.71875 3.050781 -2.765625 3.1875 -2.765625 C 3.207031 -2.765625 3.269531 -2.753906 3.375 -2.734375 C 3.488281 -2.710938 3.570312 -2.710938 3.625 -2.734375 Z M 3.625 -2.734375 "/></g></g></g><g fill="#f5fbf9" fill-opacity="1"><g transform="translate(48.457992, 9.074718)"><g/></g></g><g clip-path="url(#9a95473f0b)"><g fill="#f5fbf9" fill-opacity="1"><g transform="translate(54.735333, 9.074718)"><g><path d="M 9.078125 -6.828125 C 9.078125 -7.066406 8.96875 -7.289062 8.75 -7.5 C 8.4375 -7.789062 8.007812 -7.9375 7.46875 -7.9375 C 6.988281 -7.9375 6.460938 -7.832031 5.890625 -7.625 C 5.585938 -7.519531 5.328125 -7.375 5.109375 -7.1875 C 4.765625 -6.882812 4.59375 -6.585938 4.59375 -6.296875 C 4.59375 -5.898438 4.84375 -5.546875 5.34375 -5.234375 C 5.53125 -5.117188 5.90625 -4.929688 6.46875 -4.671875 C 7.039062 -4.410156 7.457031 -4.203125 7.71875 -4.046875 C 8.113281 -3.804688 8.382812 -3.546875 8.53125 -3.265625 C 8.6875 -2.992188 8.765625 -2.738281 8.765625 -2.5 C 8.765625 -2.164062 8.65625 -1.828125 8.4375 -1.484375 C 8.050781 -0.859375 7.484375 -0.320312 6.734375 0.125 C 5.859375 0.65625 4.8125 0.921875 3.59375 0.921875 C 2.425781 0.921875 1.492188 0.617188 0.796875 0.015625 C 0.265625 -0.441406 0 -1.023438 0 -1.734375 C 0 -2.191406 0.160156 -2.695312 0.484375 -3.25 C 0.816406 -3.800781 1.226562 -4.191406 1.71875 -4.421875 C 1.8125 -4.460938 1.882812 -4.472656 1.9375 -4.453125 C 1.988281 -4.441406 1.945312 -4.378906 1.8125 -4.265625 C 1.53125 -4.035156 1.300781 -3.785156 1.125 -3.515625 C 0.75 -2.921875 0.5625 -2.28125 0.5625 -1.59375 C 0.5625 -1.132812 0.6875 -0.734375 0.9375 -0.390625 C 1.394531 0.210938 2.1875 0.554688 3.3125 0.640625 C 3.4375 0.660156 3.625 0.671875 3.875 0.671875 C 4.132812 0.671875 4.476562 0.625 4.90625 0.53125 C 5.34375 0.4375 5.757812 0.285156 6.15625 0.078125 C 7.03125 -0.378906 7.59375 -0.96875 7.84375 -1.6875 C 7.925781 -1.90625 7.96875 -2.113281 7.96875 -2.3125 C 7.96875 -2.769531 7.757812 -3.171875 7.34375 -3.515625 C 7.125 -3.691406 6.671875 -3.925781 5.984375 -4.21875 C 5.304688 -4.507812 4.851562 -4.734375 4.625 -4.890625 C 4.101562 -5.234375 3.84375 -5.644531 3.84375 -6.125 C 3.84375 -6.539062 4.078125 -6.945312 4.546875 -7.34375 C 5.210938 -7.90625 6.148438 -8.1875 7.359375 -8.1875 C 7.929688 -8.1875 8.394531 -8.097656 8.75 -7.921875 C 9.113281 -7.753906 9.332031 -7.503906 9.40625 -7.171875 C 9.425781 -7.097656 9.4375 -7.03125 9.4375 -6.96875 C 9.4375 -6.707031 9.316406 -6.472656 9.078125 -6.265625 C 8.898438 -6.128906 8.671875 -6.019531 8.390625 -5.9375 C 8.273438 -5.90625 8.210938 -5.921875 8.203125 -5.984375 C 8.179688 -6.066406 8.265625 -6.117188 8.453125 -6.140625 C 8.773438 -6.179688 8.972656 -6.34375 9.046875 -6.625 C 9.066406 -6.695312 9.078125 -6.765625 9.078125 -6.828125 Z M 9.078125 -6.828125 "/></g></g></g></g><g fill="#f5fbf9" fill-opacity="1"><g transform="translate(67.471133, 9.074718)"><g><path d="M 1.953125 -3.90625 C 1.859375 -3.832031 1.753906 -3.796875 1.640625 -3.796875 C 1.523438 -3.796875 1.429688 -3.832031 1.359375 -3.90625 C 1.296875 -3.988281 1.269531 -4.085938 1.28125 -4.203125 C 1.300781 -4.316406 1.359375 -4.414062 1.453125 -4.5 C 1.546875 -4.582031 1.648438 -4.625 1.765625 -4.625 C 1.878906 -4.625 1.972656 -4.582031 2.046875 -4.5 C 2.117188 -4.414062 2.144531 -4.316406 2.125 -4.203125 C 2.101562 -4.085938 2.046875 -3.988281 1.953125 -3.90625 Z M 0.96875 -0.21875 C 1.09375 -0.21875 1.226562 -0.28125 1.375 -0.40625 C 1.613281 -0.65625 1.925781 -1.164062 2.3125 -1.9375 C 2.363281 -2.03125 2.410156 -2.054688 2.453125 -2.015625 C 2.460938 -2.003906 2.46875 -1.984375 2.46875 -1.953125 C 2.46875 -1.921875 2.441406 -1.847656 2.390625 -1.734375 C 2.335938 -1.617188 2.289062 -1.515625 2.25 -1.421875 C 2.207031 -1.328125 2.125 -1.171875 2 -0.953125 C 1.875 -0.742188 1.757812 -0.582031 1.65625 -0.46875 C 1.382812 -0.15625 1.125 0 0.875 0 C 0.632812 0 0.457031 -0.0703125 0.34375 -0.21875 C 0.238281 -0.363281 0.1875 -0.523438 0.1875 -0.703125 C 0.1875 -0.890625 0.234375 -1.09375 0.328125 -1.3125 L 0.96875 -2.953125 C 0.976562 -2.992188 0.984375 -3.046875 0.984375 -3.109375 C 0.984375 -3.171875 0.941406 -3.257812 0.859375 -3.375 L 1.421875 -3.375 C 1.578125 -3.375 1.664062 -3.34375 1.6875 -3.28125 C 1.71875 -3.226562 1.695312 -3.144531 1.625 -3.03125 L 0.828125 -1.140625 C 0.710938 -0.898438 0.65625 -0.691406 0.65625 -0.515625 C 0.65625 -0.316406 0.757812 -0.21875 0.96875 -0.21875 Z M 0.96875 -0.21875 "/></g></g></g><g fill="#f5fbf9" fill-opacity="1"><g transform="translate(72.893385, 9.074718)"><g><path d="M 2.421875 -2.3125 C 2.660156 -2.59375 2.78125 -2.832031 2.78125 -3.03125 C 2.78125 -3.226562 2.695312 -3.328125 2.53125 -3.328125 C 2.21875 -3.328125 1.859375 -3.035156 1.453125 -2.453125 C 1.328125 -2.273438 1.203125 -2.035156 1.078125 -1.734375 C 0.960938 -1.441406 0.90625 -1.175781 0.90625 -0.9375 C 0.90625 -0.695312 0.953125 -0.503906 1.046875 -0.359375 C 1.148438 -0.210938 1.300781 -0.140625 1.5 -0.140625 C 1.707031 -0.140625 1.894531 -0.1875 2.0625 -0.28125 C 2.238281 -0.382812 2.40625 -0.539062 2.5625 -0.75 C 2.726562 -0.957031 2.847656 -1.128906 2.921875 -1.265625 C 3.003906 -1.410156 3.117188 -1.625 3.265625 -1.90625 C 3.304688 -2 3.34375 -2.035156 3.375 -2.015625 C 3.414062 -2.003906 3.4375 -1.984375 3.4375 -1.953125 C 3.4375 -1.921875 3.390625 -1.8125 3.296875 -1.625 C 3.203125 -1.4375 3.109375 -1.253906 3.015625 -1.078125 C 2.929688 -0.910156 2.804688 -0.722656 2.640625 -0.515625 C 2.335938 -0.140625 1.925781 0.046875 1.40625 0.046875 C 1.019531 0.046875 0.742188 -0.046875 0.578125 -0.234375 C 0.421875 -0.421875 0.34375 -0.632812 0.34375 -0.875 C 0.34375 -1.164062 0.414062 -1.484375 0.5625 -1.828125 C 0.707031 -2.179688 0.875 -2.488281 1.0625 -2.75 C 1.445312 -3.28125 1.894531 -3.546875 2.40625 -3.546875 C 2.65625 -3.546875 2.832031 -3.484375 2.9375 -3.359375 C 3.050781 -3.242188 3.109375 -3.109375 3.109375 -2.953125 C 3.109375 -2.722656 3.015625 -2.53125 2.828125 -2.375 C 2.734375 -2.289062 2.65625 -2.25 2.59375 -2.25 C 2.53125 -2.25 2.472656 -2.269531 2.421875 -2.3125 Z M 2.421875 -2.3125 "/></g></g></g><g fill="#f5fbf9" fill-opacity="1"><g transform="translate(79.180793, 9.074718)"><g><path d="M 1.953125 -3.90625 C 1.859375 -3.832031 1.753906 -3.796875 1.640625 -3.796875 C 1.523438 -3.796875 1.429688 -3.832031 1.359375 -3.90625 C 1.296875 -3.988281 1.269531 -4.085938 1.28125 -4.203125 C 1.300781 -4.316406 1.359375 -4.414062 1.453125 -4.5 C 1.546875 -4.582031 1.648438 -4.625 1.765625 -4.625 C 1.878906 -4.625 1.972656 -4.582031 2.046875 -4.5 C 2.117188 -4.414062 2.144531 -4.316406 2.125 -4.203125 C 2.101562 -4.085938 2.046875 -3.988281 1.953125 -3.90625 Z M 0.96875 -0.21875 C 1.09375 -0.21875 1.226562 -0.28125 1.375 -0.40625 C 1.613281 -0.65625 1.925781 -1.164062 2.3125 -1.9375 C 2.363281 -2.03125 2.410156 -2.054688 2.453125 -2.015625 C 2.460938 -2.003906 2.46875 -1.984375 2.46875 -1.953125 C 2.46875 -1.921875 2.441406 -1.847656 2.390625 -1.734375 C 2.335938 -1.617188 2.289062 -1.515625 2.25 -1.421875 C 2.207031 -1.328125 2.125 -1.171875 2 -0.953125 C 1.875 -0.742188 1.757812 -0.582031 1.65625 -0.46875 C 1.382812 -0.15625 1.125 0 0.875 0 C 0.632812 0 0.457031 -0.0703125 0.34375 -0.21875 C 0.238281 -0.363281 0.1875 -0.523438 0.1875 -0.703125 C 0.1875 -0.890625 0.234375 -1.09375 0.328125 -1.3125 L 0.96875 -2.953125 C 0.976562 -2.992188 0.984375 -3.046875 0.984375 -3.109375 C 0.984375 -3.171875 0.941406 -3.257812 0.859375 -3.375 L 1.421875 -3.375 C 1.578125 -3.375 1.664062 -3.34375 1.6875 -3.28125 C 1.71875 -3.226562 1.695312 -3.144531 1.625 -3.03125 L 0.828125 -1.140625 C 0.710938 -0.898438 0.65625 -0.691406 0.65625 -0.515625 C 0.65625 -0.316406 0.757812 -0.21875 0.96875 -0.21875 Z M 0.96875 -0.21875 "/></g></g></g><g fill="#f5fbf9" fill-opacity="1"><g transform="translate(84.603045, 9.074718)"><g><path d="M 1.125 -1.9375 C 1.113281 -1.914062 1.082031 -1.820312 1.03125 -1.65625 C 0.976562 -1.5 0.929688 -1.347656 0.890625 -1.203125 C 0.859375 -1.066406 0.84375 -0.925781 0.84375 -0.78125 C 0.84375 -0.632812 0.875 -0.5 0.9375 -0.375 C 1.007812 -0.25 1.117188 -0.1875 1.265625 -0.1875 C 1.503906 -0.1875 1.738281 -0.347656 1.96875 -0.671875 C 2.195312 -1.003906 2.441406 -1.421875 2.703125 -1.921875 C 2.753906 -2.015625 2.800781 -2.050781 2.84375 -2.03125 C 2.875 -2.007812 2.878906 -1.972656 2.859375 -1.921875 C 2.847656 -1.878906 2.804688 -1.785156 2.734375 -1.640625 C 2.671875 -1.492188 2.625 -1.390625 2.59375 -1.328125 C 2.570312 -1.273438 2.519531 -1.175781 2.4375 -1.03125 C 2.363281 -0.894531 2.296875 -0.789062 2.234375 -0.71875 C 2.179688 -0.644531 2.101562 -0.550781 2 -0.4375 C 1.90625 -0.332031 1.816406 -0.253906 1.734375 -0.203125 C 1.492188 -0.0546875 1.269531 0.015625 1.0625 0.015625 C 0.851562 0.015625 0.691406 -0.0234375 0.578125 -0.109375 C 0.460938 -0.203125 0.394531 -0.300781 0.375 -0.40625 C 0.351562 -0.507812 0.34375 -0.601562 0.34375 -0.6875 C 0.34375 -0.769531 0.347656 -0.875 0.359375 -1 C 0.367188 -1.207031 0.40625 -1.410156 0.46875 -1.609375 C 0.539062 -1.816406 0.578125 -1.9375 0.578125 -1.96875 C 0.734375 -2.519531 0.953125 -3.125 1.234375 -3.78125 C 1.523438 -4.4375 1.769531 -4.929688 1.96875 -5.265625 C 2.164062 -5.597656 2.320312 -5.828125 2.4375 -5.953125 C 2.664062 -6.191406 2.890625 -6.3125 3.109375 -6.3125 C 3.265625 -6.3125 3.367188 -6.203125 3.421875 -5.984375 C 3.429688 -5.941406 3.4375 -5.890625 3.4375 -5.828125 C 3.4375 -5.597656 3.351562 -5.304688 3.1875 -4.953125 C 2.613281 -3.671875 1.925781 -2.664062 1.125 -1.9375 Z M 1.203125 -2.265625 C 1.546875 -2.609375 1.882812 -3.046875 2.21875 -3.578125 C 2.5625 -4.109375 2.8125 -4.5625 2.96875 -4.9375 C 3.125 -5.3125 3.203125 -5.5625 3.203125 -5.6875 C 3.203125 -5.820312 3.175781 -5.890625 3.125 -5.890625 C 3.0625 -5.890625 2.9375 -5.757812 2.75 -5.5 C 2.5625 -5.238281 2.304688 -4.757812 1.984375 -4.0625 C 1.671875 -3.375 1.410156 -2.773438 1.203125 -2.265625 Z M 1.203125 -2.265625 "/></g></g></g><g fill="#f5fbf9" fill-opacity="1"><g transform="translate(90.407577, 9.074718)"><g><path d="M 1.953125 -3.90625 C 1.859375 -3.832031 1.753906 -3.796875 1.640625 -3.796875 C 1.523438 -3.796875 1.429688 -3.832031 1.359375 -3.90625 C 1.296875 -3.988281 1.269531 -4.085938 1.28125 -4.203125 C 1.300781 -4.316406 1.359375 -4.414062 1.453125 -4.5 C 1.546875 -4.582031 1.648438 -4.625 1.765625 -4.625 C 1.878906 -4.625 1.972656 -4.582031 2.046875 -4.5 C 2.117188 -4.414062 2.144531 -4.316406 2.125 -4.203125 C 2.101562 -4.085938 2.046875 -3.988281 1.953125 -3.90625 Z M 0.96875 -0.21875 C 1.09375 -0.21875 1.226562 -0.28125 1.375 -0.40625 C 1.613281 -0.65625 1.925781 -1.164062 2.3125 -1.9375 C 2.363281 -2.03125 2.410156 -2.054688 2.453125 -2.015625 C 2.460938 -2.003906 2.46875 -1.984375 2.46875 -1.953125 C 2.46875 -1.921875 2.441406 -1.847656 2.390625 -1.734375 C 2.335938 -1.617188 2.289062 -1.515625 2.25 -1.421875 C 2.207031 -1.328125 2.125 -1.171875 2 -0.953125 C 1.875 -0.742188 1.757812 -0.582031 1.65625 -0.46875 C 1.382812 -0.15625 1.125 0 0.875 0 C 0.632812 0 0.457031 -0.0703125 0.34375 -0.21875 C 0.238281 -0.363281 0.1875 -0.523438 0.1875 -0.703125 C 0.1875 -0.890625 0.234375 -1.09375 0.328125 -1.3125 L 0.96875 -2.953125 C 0.976562 -2.992188 0.984375 -3.046875 0.984375 -3.109375 C 0.984375 -3.171875 0.941406 -3.257812 0.859375 -3.375 L 1.421875 -3.375 C 1.578125 -3.375 1.664062 -3.34375 1.6875 -3.28125 C 1.71875 -3.226562 1.695312 -3.144531 1.625 -3.03125 L 0.828125 -1.140625 C 0.710938 -0.898438 0.65625 -0.691406 0.65625 -0.515625 C 0.65625 -0.316406 0.757812 -0.21875 0.96875 -0.21875 Z M 0.96875 -0.21875 "/></g></g></g><g fill="#f5fbf9" fill-opacity="1"><g transform="translate(95.829829, 9.074718)"><g><path d="M 3.625 -2.734375 C 3.507812 -2.609375 3.335938 -2.332031 3.109375 -1.90625 C 2.890625 -1.476562 2.757812 -1.160156 2.71875 -0.953125 C 2.675781 -0.742188 2.65625 -0.570312 2.65625 -0.4375 C 2.65625 -0.300781 2.707031 -0.234375 2.8125 -0.234375 C 2.9375 -0.234375 3.09375 -0.351562 3.28125 -0.59375 C 3.550781 -0.9375 3.820312 -1.382812 4.09375 -1.9375 C 4.125 -1.988281 4.15625 -2.019531 4.1875 -2.03125 C 4.238281 -2.050781 4.265625 -2.03125 4.265625 -1.96875 C 4.265625 -1.9375 4.253906 -1.894531 4.234375 -1.84375 C 3.617188 -0.601562 3.097656 0.015625 2.671875 0.015625 C 2.484375 0.015625 2.328125 -0.078125 2.203125 -0.265625 C 2.140625 -0.359375 2.109375 -0.488281 2.109375 -0.65625 C 2.109375 -0.832031 2.144531 -1.039062 2.21875 -1.28125 C 1.675781 -0.414062 1.210938 0.015625 0.828125 0.015625 C 0.722656 0.015625 0.625 -0.015625 0.53125 -0.078125 C 0.332031 -0.222656 0.234375 -0.46875 0.234375 -0.8125 C 0.234375 -1.46875 0.519531 -2.132812 1.09375 -2.8125 C 1.40625 -3.1875 1.800781 -3.429688 2.28125 -3.546875 C 2.40625 -3.578125 2.523438 -3.59375 2.640625 -3.59375 C 2.941406 -3.59375 3.203125 -3.484375 3.421875 -3.265625 C 3.484375 -3.191406 3.5 -3.117188 3.46875 -3.046875 C 3.445312 -2.984375 3.394531 -2.960938 3.3125 -2.984375 C 3.238281 -3.222656 3.078125 -3.34375 2.828125 -3.34375 C 2.535156 -3.34375 2.179688 -3.113281 1.765625 -2.65625 C 1.523438 -2.382812 1.300781 -2.066406 1.09375 -1.703125 C 0.820312 -1.273438 0.6875 -0.925781 0.6875 -0.65625 C 0.6875 -0.394531 0.773438 -0.265625 0.953125 -0.265625 C 1.347656 -0.265625 1.875 -0.882812 2.53125 -2.125 C 2.65625 -2.375 2.757812 -2.539062 2.84375 -2.625 C 2.9375 -2.71875 3.050781 -2.765625 3.1875 -2.765625 C 3.207031 -2.765625 3.269531 -2.753906 3.375 -2.734375 C 3.488281 -2.710938 3.570312 -2.710938 3.625 -2.734375 Z M 3.625 -2.734375 "/></g></g></g><g fill="#f5fbf9" fill-opacity="1"><g transform="translate(103.022624, 9.074718)"><g><path d="M 3.609375 -3.296875 C 2.785156 -1.847656 2.375 -0.90625 2.375 -0.46875 C 2.375 -0.289062 2.4375 -0.203125 2.5625 -0.203125 C 2.90625 -0.203125 3.363281 -0.78125 3.9375 -1.9375 C 3.976562 -2.03125 4.019531 -2.066406 4.0625 -2.046875 C 4.101562 -2.023438 4.125 -2 4.125 -1.96875 C 4.125 -1.9375 4.109375 -1.894531 4.078125 -1.84375 C 3.722656 -1.132812 3.421875 -0.640625 3.171875 -0.359375 C 2.929688 -0.0859375 2.6875 0.046875 2.4375 0.046875 C 2.195312 0.046875 2.015625 -0.046875 1.890625 -0.234375 C 1.828125 -0.328125 1.796875 -0.445312 1.796875 -0.59375 C 1.796875 -0.75 1.828125 -0.929688 1.890625 -1.140625 C 1.960938 -1.359375 2.144531 -1.707031 2.4375 -2.1875 C 2.519531 -2.3125 2.5625 -2.410156 2.5625 -2.484375 C 2.5625 -2.554688 2.503906 -2.59375 2.390625 -2.59375 C 2.273438 -2.59375 2.054688 -2.441406 1.734375 -2.140625 C 1.242188 -1.691406 0.773438 -1.023438 0.328125 -0.140625 C 0.285156 -0.078125 0.238281 -0.0351562 0.1875 -0.015625 C 0.144531 0.00390625 0.0507812 0.015625 -0.09375 0.015625 C -0.25 0.0234375 -0.347656 0.046875 -0.390625 0.078125 C -0.285156 -0.140625 -0.078125 -0.582031 0.234375 -1.25 C 0.804688 -2.425781 1.175781 -3.097656 1.34375 -3.265625 C 1.425781 -3.335938 1.539062 -3.375 1.6875 -3.375 C 1.707031 -3.375 1.769531 -3.363281 1.875 -3.34375 C 1.988281 -3.332031 2.078125 -3.332031 2.140625 -3.34375 C 1.890625 -3.207031 1.484375 -2.578125 0.921875 -1.453125 C 1.234375 -1.835938 1.515625 -2.144531 1.765625 -2.375 C 2.023438 -2.613281 2.335938 -2.832031 2.703125 -3.03125 C 3.066406 -3.226562 3.332031 -3.328125 3.5 -3.328125 C 3.539062 -3.328125 3.578125 -3.316406 3.609375 -3.296875 Z M 3.609375 -3.296875 "/></g></g></g><g fill="#f5fbf9" fill-opacity="1"><g transform="translate(110.064527, 9.074718)"><g><path d="M 3.625 -2.734375 C 3.507812 -2.609375 3.335938 -2.332031 3.109375 -1.90625 C 2.890625 -1.476562 2.757812 -1.160156 2.71875 -0.953125 C 2.675781 -0.742188 2.65625 -0.570312 2.65625 -0.4375 C 2.65625 -0.300781 2.707031 -0.234375 2.8125 -0.234375 C 2.9375 -0.234375 3.09375 -0.351562 3.28125 -0.59375 C 3.550781 -0.9375 3.820312 -1.382812 4.09375 -1.9375 C 4.125 -1.988281 4.15625 -2.019531 4.1875 -2.03125 C 4.238281 -2.050781 4.265625 -2.03125 4.265625 -1.96875 C 4.265625 -1.9375 4.253906 -1.894531 4.234375 -1.84375 C 3.617188 -0.601562 3.097656 0.015625 2.671875 0.015625 C 2.484375 0.015625 2.328125 -0.078125 2.203125 -0.265625 C 2.140625 -0.359375 2.109375 -0.488281 2.109375 -0.65625 C 2.109375 -0.832031 2.144531 -1.039062 2.21875 -1.28125 C 1.675781 -0.414062 1.210938 0.015625 0.828125 0.015625 C 0.722656 0.015625 0.625 -0.015625 0.53125 -0.078125 C 0.332031 -0.222656 0.234375 -0.46875 0.234375 -0.8125 C 0.234375 -1.46875 0.519531 -2.132812 1.09375 -2.8125 C 1.40625 -3.1875 1.800781 -3.429688 2.28125 -3.546875 C 2.40625 -3.578125 2.523438 -3.59375 2.640625 -3.59375 C 2.941406 -3.59375 3.203125 -3.484375 3.421875 -3.265625 C 3.484375 -3.191406 3.5 -3.117188 3.46875 -3.046875 C 3.445312 -2.984375 3.394531 -2.960938 3.3125 -2.984375 C 3.238281 -3.222656 3.078125 -3.34375 2.828125 -3.34375 C 2.535156 -3.34375 2.179688 -3.113281 1.765625 -2.65625 C 1.523438 -2.382812 1.300781 -2.066406 1.09375 -1.703125 C 0.820312 -1.273438 0.6875 -0.925781 0.6875 -0.65625 C 0.6875 -0.394531 0.773438 -0.265625 0.953125 -0.265625 C 1.347656 -0.265625 1.875 -0.882812 2.53125 -2.125 C 2.65625 -2.375 2.757812 -2.539062 2.84375 -2.625 C 2.9375 -2.71875 3.050781 -2.765625 3.1875 -2.765625 C 3.207031 -2.765625 3.269531 -2.753906 3.375 -2.734375 C 3.488281 -2.710938 3.570312 -2.710938 3.625 -2.734375 Z M 3.625 -2.734375 "/></g></g></g></g></g></svg>